<svg width="20" height="20" viewBox="0 0 20 20" fill="none" xmlns="http://www.w3.org/2000/svg">
<path d="M4.81401 3.87196C4.75243 3.80861 4.67887 3.75814 4.5976 3.72346C4.51634 3.68879 4.429 3.67061 4.34065 3.66999C4.2523 3.66936 4.16471 3.6863 4.08297 3.71982C4.00123 3.75334 3.92696 3.80278 3.86449 3.86525C3.80201 3.92772 3.75258 4.00199 3.71906 4.08373C3.68554 4.16548 3.6686 4.25307 3.66922 4.34142C3.66985 4.42976 3.68802 4.51711 3.7227 4.59837C3.75737 4.67963 3.80785 4.75319 3.8712 4.81477L15.1849 16.1285C15.2465 16.1918 15.3201 16.2423 15.4013 16.277C15.4826 16.3117 15.5699 16.3298 15.6583 16.3305C15.7466 16.3311 15.8342 16.3141 15.9159 16.2806C15.9977 16.2471 16.072 16.1977 16.1344 16.1352C16.1969 16.0727 16.2463 15.9985 16.2799 15.9167C16.3134 15.835 16.3303 15.7474 16.3297 15.659C16.3291 15.5707 16.3109 15.4833 16.2762 15.4021C16.2415 15.3208 16.1911 15.2473 16.1277 15.1857L4.81401 3.87196Z" fill="#7F7F86"/>
<path d="M3.87074 15.1857C3.80739 15.2473 3.75691 15.3209 3.72224 15.4022C3.68757 15.4834 3.66939 15.5708 3.66876 15.6591C3.66814 15.7475 3.68508 15.835 3.7186 15.9168C3.75212 15.9985 3.80156 16.0728 3.86403 16.1353C3.9265 16.1977 4.00077 16.2472 4.08251 16.2807C4.16426 16.3142 4.25185 16.3312 4.3402 16.3305C4.42854 16.3299 4.51589 16.3117 4.59715 16.2771C4.67841 16.2424 4.75197 16.1919 4.81355 16.1286L16.1273 4.81484C16.1906 4.75326 16.2411 4.6797 16.2758 4.59844C16.3104 4.51718 16.3286 4.42984 16.3292 4.34149C16.3299 4.25314 16.3129 4.16555 16.2794 4.0838C16.2459 4.00206 16.1964 3.9278 16.134 3.86532C16.0715 3.80285 15.9972 3.75342 15.9155 3.71989C15.8337 3.68637 15.7462 3.66943 15.6578 3.67006C15.5695 3.67068 15.4821 3.68886 15.4009 3.72353C15.3196 3.75821 15.246 3.80869 15.1845 3.87204L3.87074 15.1857Z" fill="#7F7F86"/>
</svg>
